<?xml version="1.0" encoding="UTF-8"?>
<svg xmlns="http://www.w3.org/2000/svg" xmlns:xlink="http://www.w3.org/1999/xlink" width="266px" height="73px" viewBox="0 0 200 55" version="1.1">
<g id="surface1">
<path style=" stroke:none;fill-rule:nonzero;fill:rgb(100%,100%,100%);fill-opacity:1;" d="M 80.816406 22.046875 L 80.816406 43.628906 L 76.484375 43.628906 L 76.484375 34.242188 L 67.269531 34.242188 L 67.269531 43.628906 L 62.96875 43.628906 L 62.96875 22.046875 L 67.269531 22.046875 L 67.269531 30.789062 L 76.484375 30.789062 L 76.484375 22.046875 Z M 92.527344 26.476562 C 94.175781 26.476562 95.652344 26.824219 96.953125 27.515625 C 98.273438 28.210938 99.3125 29.21875 100.066406 30.542969 C 100.816406 31.847656 101.191406 33.386719 101.191406 35.160156 C 101.191406 36.933594 100.816406 38.472656 100.066406 39.777344 C 99.3125 41.082031 98.273438 42.089844 96.953125 42.804688 C 95.652344 43.496094 94.175781 43.84375 92.527344 43.84375 C 90.882812 43.84375 89.398438 43.496094 88.074219 42.804688 C 86.773438 42.089844 85.746094 41.082031 84.992188 39.777344 C 84.242188 38.472656 83.863281 36.933594 83.863281 35.160156 C 83.863281 33.386719 84.242188 31.847656 84.992188 30.542969 C 85.746094 29.21875 86.773438 28.210938 88.074219 27.515625 C 89.398438 26.824219 90.882812 26.476562 92.527344 26.476562 Z M 92.527344 30.207031 C 91.328125 30.207031 90.3125 30.636719 89.476562 31.492188 C 88.644531 32.328125 88.226562 33.550781 88.226562 35.160156 C 88.226562 36.769531 88.644531 38.003906 89.476562 38.859375 C 90.3125 39.695312 91.328125 40.113281 92.527344 40.113281 C 93.730469 40.113281 94.746094 39.695312 95.578125 38.859375 C 96.414062 38.003906 96.832031 36.769531 96.832031 35.160156 C 96.832031 33.550781 96.414062 32.328125 95.578125 31.492188 C 94.746094 30.636719 93.730469 30.207031 92.527344 30.207031 Z M 112.042969 26.476562 C 113.691406 26.476562 115.164062 26.824219 116.46875 27.515625 C 117.789062 28.210938 118.828125 29.21875 119.578125 30.542969 C 120.332031 31.847656 120.707031 33.386719 120.707031 35.160156 C 120.707031 36.933594 120.332031 38.472656 119.578125 39.777344 C 118.828125 41.082031 117.789062 42.089844 116.46875 42.804688 C 115.164062 43.496094 113.691406 43.84375 112.042969 43.84375 C 110.394531 43.84375 108.910156 43.496094 107.589844 42.804688 C 106.289062 42.089844 105.261719 41.082031 104.507812 39.777344 C 103.753906 38.472656 103.378906 36.933594 103.378906 35.160156 C 103.378906 33.386719 103.753906 31.847656 104.507812 30.542969 C 105.261719 29.21875 106.289062 28.210938 107.589844 27.515625 C 108.910156 26.824219 110.394531 26.476562 112.042969 26.476562 Z M 112.042969 30.207031 C 110.84375 30.207031 109.828125 30.636719 108.992188 31.492188 C 108.160156 32.328125 107.742188 33.550781 107.742188 35.160156 C 107.742188 36.769531 108.160156 38.003906 108.992188 38.859375 C 109.828125 39.695312 110.84375 40.113281 112.042969 40.113281 C 113.242188 40.113281 114.261719 39.695312 115.09375 38.859375 C 115.929688 38.003906 116.34375 36.769531 116.34375 35.160156 C 116.34375 33.550781 115.929688 32.328125 115.09375 31.492188 C 114.261719 30.636719 113.242188 30.207031 112.042969 30.207031 Z M 112.042969 30.207031 "/>
<path style=" stroke:none;fill-rule:nonzero;fill:rgb(36.078431%,88.235294%,90.196078%);fill-opacity:1;" d="M 135.769531 32.5 C 137.070312 32.765625 138.109375 33.386719 138.878906 34.367188 C 139.671875 35.324219 140.070312 36.453125 140.070312 37.757812 C 140.070312 39.574219 139.460938 41.007812 138.238281 42.070312 C 137.039062 43.109375 135.289062 43.628906 132.992188 43.628906 L 123.75 43.628906 L 123.75 22.046875 L 132.808594 22.046875 C 134.984375 22.046875 136.652344 22.523438 137.8125 23.480469 C 138.992188 24.441406 139.582031 25.785156 139.582031 27.515625 C 139.582031 28.863281 139.226562 29.964844 138.515625 30.820312 C 137.824219 31.675781 136.90625 32.234375 135.769531 32.5 Z M 128.050781 31.09375 L 131.925781 31.09375 C 133.003906 31.09375 133.816406 30.859375 134.367188 30.390625 C 134.933594 29.902344 135.21875 29.210938 135.21875 28.3125 C 135.21875 27.414062 134.945312 26.722656 134.394531 26.234375 C 133.847656 25.746094 133.003906 25.5 131.863281 25.5 L 128.050781 25.5 Z M 132.136719 40.113281 C 133.277344 40.113281 134.152344 39.867188 134.761719 39.378906 C 135.371094 38.871094 135.675781 38.136719 135.675781 37.179688 C 135.675781 36.21875 135.363281 35.484375 134.730469 34.976562 C 134.121094 34.445312 133.246094 34.183594 132.109375 34.183594 L 128.050781 34.183594 L 128.050781 40.113281 Z M 149.703125 26.476562 C 151.128906 26.476562 152.347656 26.8125 153.367188 27.488281 C 154.382812 28.160156 155.105469 29.066406 155.53125 30.207031 L 155.53125 26.691406 L 159.804688 26.691406 L 159.804688 43.628906 L 155.53125 43.628906 L 155.53125 40.082031 C 155.105469 41.222656 154.382812 42.140625 153.367188 42.832031 C 152.347656 43.507812 151.128906 43.84375 149.703125 43.84375 C 148.28125 43.84375 147 43.496094 145.859375 42.804688 C 144.722656 42.109375 143.828125 41.113281 143.175781 39.808594 C 142.546875 38.480469 142.230469 36.933594 142.230469 35.160156 C 142.230469 33.386719 142.546875 31.847656 143.175781 30.542969 C 143.828125 29.21875 144.722656 28.210938 145.859375 27.515625 C 147 26.824219 148.28125 26.476562 149.703125 26.476562 Z M 151.046875 30.238281 C 149.703125 30.238281 148.625 30.675781 147.8125 31.554688 C 147 32.429688 146.59375 33.632812 146.59375 35.160156 C 146.59375 36.6875 147 37.890625 147.8125 38.765625 C 148.625 39.625 149.703125 40.050781 151.046875 40.050781 C 152.347656 40.050781 153.417969 39.613281 154.25 38.738281 C 155.105469 37.839844 155.53125 36.648438 155.53125 35.160156 C 155.53125 33.652344 155.105469 32.460938 154.25 31.582031 C 153.417969 30.6875 152.347656 30.238281 151.046875 30.238281 Z M 173.769531 26.449219 C 175.722656 26.449219 177.277344 27.089844 178.4375 28.375 C 179.597656 29.65625 180.175781 31.460938 180.175781 33.785156 L 180.175781 43.628906 L 175.90625 43.628906 L 175.90625 34.273438 C 175.90625 32.929688 175.558594 31.890625 174.867188 31.15625 C 174.175781 30.402344 173.230469 30.023438 172.03125 30.023438 C 170.808594 30.023438 169.832031 30.421875 169.101562 31.214844 C 168.371094 32.011719 168.003906 33.152344 168.003906 34.640625 L 168.003906 43.628906 L 163.699219 43.628906 L 163.699219 26.691406 L 168.003906 26.691406 L 168.003906 30.085938 C 168.449219 28.945312 169.183594 28.058594 170.199219 27.425781 C 171.238281 26.773438 172.425781 26.449219 173.769531 26.449219 Z M 193.84375 43.628906 L 188.261719 36.230469 L 188.261719 43.628906 L 183.960938 43.628906 L 183.960938 21.003906 L 188.261719 21.003906 L 188.261719 33.722656 L 193.816406 26.691406 L 198.910156 26.691406 L 191.800781 35.128906 L 199.09375 43.628906 Z M 193.84375 43.628906 "/>
<path style=" stroke:none;fill-rule:nonzero;fill:rgb(100%,100%,100%);fill-opacity:1;" d="M 27.117188 0 C 21.753906 0 16.511719 1.59375 12.050781 4.578125 C 7.59375 7.566406 4.117188 11.808594 2.0625 16.773438 C 0.0117188 21.742188 -0.523438 27.203125 0.519531 32.476562 C 1.566406 37.746094 4.148438 42.589844 7.941406 46.390625 C 11.734375 50.191406 16.566406 52.777344 21.828125 53.828125 C 27.089844 54.875 32.542969 54.335938 37.496094 52.28125 C 42.453125 50.222656 46.6875 46.742188 49.667969 42.273438 C 52.648438 37.804688 54.238281 32.550781 54.238281 27.175781 L 40.679688 27.175781 C 40.679688 29.863281 39.882812 32.488281 38.394531 34.722656 C 36.902344 36.957031 34.785156 38.699219 32.308594 39.726562 C 29.828125 40.753906 27.105469 41.023438 24.472656 40.5 C 21.84375 39.976562 19.425781 38.683594 17.53125 36.78125 C 15.632812 34.882812 14.34375 32.460938 13.820312 29.824219 C 13.296875 27.1875 13.566406 24.457031 14.589844 21.976562 C 15.617188 19.492188 17.355469 17.371094 19.585938 15.878906 C 21.816406 14.382812 24.4375 13.585938 27.117188 13.585938 Z M 27.117188 0 "/>
<path style=" stroke:none;fill-rule:nonzero;fill:rgb(36.078431%,88.235294%,90.196078%);fill-opacity:1;" d="M 27.117188 0 C 23.558594 0 20.03125 0.703125 16.742188 2.070312 C 13.449219 3.433594 10.460938 5.4375 7.941406 7.960938 C 5.425781 10.484375 3.425781 13.476562 2.0625 16.773438 C 0.703125 20.070312 0 23.605469 0 27.175781 L 13.558594 27.175781 C 13.558594 25.390625 13.910156 23.625 14.589844 21.976562 C 15.273438 20.328125 16.273438 18.828125 17.53125 17.566406 C 18.789062 16.304688 20.285156 15.304688 21.929688 14.621094 C 23.574219 13.9375 25.339844 13.585938 27.117188 13.585938 Z M 27.117188 0 "/>
<path style=" stroke:none;fill-rule:nonzero;fill:rgb(36.078431%,88.235294%,90.196078%);fill-opacity:1;" d="M 35.59375 27.175781 C 35.59375 31.863281 31.800781 35.667969 27.117188 35.667969 C 22.4375 35.667969 18.644531 31.863281 18.644531 27.175781 C 18.644531 22.484375 22.4375 18.683594 27.117188 18.683594 C 31.800781 18.683594 35.59375 22.484375 35.59375 27.175781 Z M 35.59375 27.175781 "/>
<path style=" stroke:none;fill-rule:nonzero;fill:rgb(100%,100%,100%);fill-opacity:1;" d="M 35.59375 27.175781 C 35.59375 26.058594 35.375 24.953125 34.949219 23.925781 C 34.523438 22.894531 33.898438 21.957031 33.109375 21.167969 C 32.324219 20.382812 31.390625 19.753906 30.363281 19.328125 C 29.332031 18.902344 28.230469 18.683594 27.117188 18.683594 C 26.003906 18.683594 24.902344 18.902344 23.875 19.328125 C 22.847656 19.753906 21.914062 20.382812 21.125 21.167969 C 20.339844 21.957031 19.714844 22.894531 19.289062 23.925781 C 18.863281 24.953125 18.644531 26.058594 18.644531 27.175781 Z M 35.59375 27.175781 "/>
</g>
</svg>
